ply
format ascii 1.0
comment generated by Broxy
element vertex 132
property float x
property float y
property float z
element face 260
property list uchar int vertex_indices
end_header
-0.402288 -0.846585 -0.162061
-0.487937 -0.770376 -0.291907
-0.482504 -0.620431 -0.173576
-0.428404 -0.835175 -0.286387
-0.111736 -0.804272 -0.286898
-0.322593 -0.665276 -0.309283
-0.0815464 -0.653584 -0.156075
-0.481033 -0.768683 -0.145158
-0.326938 -0.718338 -0.144969
0.117849 -0.529302 -0.336348
0.0747043 -0.805799 -0.156696
0.132006 -0.807025 -0.286882
0.421982 -0.821315 -0.294402
0.402727 -0.817751 -0.133953
0.478925 -0.815706 -0.148341
-0.0788756 -0.804385 -0.157105
0.102073 -0.597516 -0.154011
0.263416 -0.630674 -0.364582
0.4992 -0.699513 -0.288748
0.48283 -0.527467 -0.134887
-0.145611 0.118446 -0.329356
-0.470076 -0.42852 -0.275211
-0.471193 -0.495659 -0.146539
-0.468698 0.00915203 -0.266182
-0.470016 -0.280649 -0.136046
-0.280028 -0.424108 -0.326743
-0.307509 -0.551079 -0.14653
-0.303108 -0.390414 -0.144785
-0.130813 -0.316564 -0.154198
-0.472245 -0.195803 -0.266309
-0.475083 0.0236782 -0.136778
-0.207136 -0.124935 -0.327963
-0.308726 0.0927643 -0.29566
-0.324566 0.0314082 -0.0940976
-0.107969 -0.555831 -0.331097
-0.112748 -0.318129 -0.34354
0.063349 -0.191416 -0.345459
0.101951 -0.370916 -0.154397
0.299269 -0.547758 -0.134684
0.400569 -0.290441 -0.10567
0.113222 -0.270178 -0.110254
0.465636 -0.399472 -0.264222
0.470672 -0.237637 -0.265154
0.471388 -0.229121 -0.153884
0.281366 -0.0549215 -0.294868
0.0933202 0.135058 -0.332269
0.472117 0.0619563 -0.264509
0.233661 0.411386 -0.283211
0.478037 0.0918606 -0.133991
0.353977 -0.0159302 -0.127628
-0.284973 -0.665652 0.467617
-0.153385 -0.668901 0.36256
-0.277792 -0.665359 0.348905
-0.136604 -0.669339 0.477057
-0.317081 -0.439582 0.692724
-0.120337 -0.438043 0.535631
-0.168909 -0.436162 0.695086
0.14441 -0.656532 0.479664
0.171777 -0.457081 0.369744
0.118717 -0.45378 0.497768
0.286626 -0.655047 0.478281
0.288637 -0.655273 0.376661
0.286243 -0.632166 0.371029
0.296394 -0.504074 0.419901
0.308418 -0.357931 0.356295
0.335836 -0.336789 0.568011
0.291851 -0.437419 0.693467
-0.341348 -0.176633 -0.0625858
-0.108018 -0.293367 0.0808774
-0.166304 -0.322831 0.30347
-0.312147 0.0933867 0.0527359
-0.252554 0.263878 0.0656764
-0.233461 0.0371285 0.373099
-0.292329 -0.37494 0.362585
-0.343981 -0.365353 0.483457
-0.268943 -0.22579 0.43563
-0.287419 -0.289578 0.710112
-0.246565 -0.170339 0.275396
0.307771 -0.155844 0.0532169
0.118368 -0.320238 0.228518
-0.115389 0.0522622 0.368974
0.250262 -0.0281751 0.487934
0.0431454 0.174775 0.380055
0.23961 0.167984 0.239187
0.307479 0.0667377 0.0524104
0.307849 0.233544 0.0218334
0.24026 -0.17847 0.352692
0.163357 -0.438783 0.694711
0.288382 -0.305433 0.694368
-0.00685441 -0.0593159 0.526863
0.00178867 -0.278787 0.700996
0.144157 -0.178581 0.634797
-0.234173 -0.0377262 0.510558
0.196881 0.241012 0.477642
-0.477837 0.310247 -0.274943
-0.148546 0.474996 -0.329777
-0.464562 0.339558 -0.13772
-0.317363 0.332483 -0.0865645
-0.476266 0.509914 -0.135998
-0.315854 0.678721 -0.129596
-0.471716 0.813667 -0.307044
-0.245887 0.596041 -0.301972
-0.469292 0.819914 -0.159358
-0.25193 0.815231 -0.300618
0.466995 0.382408 -0.265713
0.474381 0.743723 -0.299192
0.466909 0.294708 -0.135024
0.310267 0.389338 0.0494294
0.00592335 0.640464 -0.290865
-0.0226651 0.809555 -0.153899
0.0378058 0.805357 -0.286182
0.0983139 0.723309 -0.00311969
0.0715861 0.500648 -0.330495
0.469781 0.7352 -0.137285
0.240932 0.816023 -0.286192
0.434847 0.815239 -0.28508
0.238012 0.815359 -0.162877
0.461193 0.814978 -0.157988
-0.311747 0.450644 0.0556997
-0.237612 0.243255 0.250489
-0.235694 0.510253 0.2044
-0.312664 0.733598 0.0620393
-0.187106 0.741733 0.0308579
-0.186357 0.632244 0.286286
-0.181618 0.242386 0.479404
-0.151755 0.634426 0.480748
0.223356 0.542758 0.245262
0.0693143 0.671716 0.151583
0.307638 0.689632 0.0822088
0.159708 0.634319 0.480569
0.193688 0.636874 0.318728
0.00141327 0.426988 0.555076
3 5 25 34
3 1 3 0
3 0 7 1
3 0 3 4
3 15 0 4
3 2 1 7
3 2 7 22
3 1 21 5
3 21 29 5
3 2 21 1
3 22 21 2
3 3 5 4
3 3 1 5
3 7 0 8
3 4 5 34
3 4 34 17
3 8 0 15
3 8 15 6
3 26 8 6
3 29 25 5
3 28 26 6
3 26 7 8
3 27 7 26
3 10 15 4
3 10 4 11
3 13 11 12
3 13 10 11
3 14 13 12
3 14 12 18
3 4 17 11
3 17 34 9
3 6 15 10
3 16 6 10
3 11 17 12
3 12 17 18
3 37 6 16
3 28 6 37
3 37 16 38
3 38 10 13
3 16 10 38
3 19 38 13
3 13 14 19
3 18 17 41
3 17 42 41
3 18 19 14
3 41 19 18
3 39 38 19
3 25 35 34
3 25 31 35
3 20 112 45
3 22 29 21
3 24 29 22
3 30 23 29
3 27 22 7
3 24 22 27
3 28 27 26
3 29 31 25
3 27 28 67
3 68 67 28
3 67 24 27
3 33 24 67
3 24 30 29
3 94 23 30
3 29 32 31
3 23 32 29
3 96 30 33
3 31 32 20
3 31 20 36
3 23 94 32
3 32 94 95
3 95 20 32
3 30 24 33
3 70 33 67
3 97 96 33
3 34 35 9
3 35 36 9
3 31 36 35
3 37 38 39
3 40 37 39
3 68 28 40
3 37 40 28
3 79 68 40
3 17 9 42
3 9 36 42
3 42 43 41
3 43 19 41
3 36 44 42
3 44 46 42
3 46 48 42
3 48 43 42
3 39 43 48
3 43 39 19
3 78 40 39
3 78 39 49
3 36 20 45
3 36 45 44
3 44 45 46
3 49 39 48
3 45 104 46
3 47 104 45
3 106 48 46
3 84 78 49
3 84 49 106
3 106 49 48
3 106 85 84
3 74 52 50
3 50 52 51
3 53 50 51
3 73 52 74
3 54 74 50
3 52 58 51
3 52 73 58
3 53 54 50
3 56 54 53
3 53 55 56
3 57 53 51
3 61 57 51
3 51 62 61
3 51 58 62
3 60 57 61
3 55 53 57
3 58 64 62
3 55 57 59
3 60 66 57
3 87 59 57
3 61 63 60
3 62 63 61
3 64 63 62
3 63 65 60
3 64 65 63
3 65 66 60
3 57 66 87
3 68 77 67
3 69 77 68
3 69 75 77
3 72 70 67
3 118 70 71
3 119 71 70
3 77 72 67
3 92 80 72
3 70 72 119
3 72 80 119
3 74 75 73
3 75 74 76
3 73 75 69
3 92 77 75
3 76 92 75
3 76 74 54
3 76 54 56
3 87 56 55
3 90 56 87
3 76 56 90
3 92 76 90
3 89 92 90
3 72 77 92
3 78 79 40
3 78 64 79
3 78 86 64
3 69 68 79
3 58 73 79
3 73 69 79
3 79 64 58
3 84 83 78
3 83 86 78
3 83 84 85
3 107 83 85
3 83 82 81
3 83 81 86
3 119 80 124
3 65 64 86
3 86 81 65
3 92 89 81
3 81 91 65
3 87 55 59
3 88 90 87
3 88 87 66
3 90 88 91
3 91 88 65
3 91 89 90
3 89 91 81
3 65 88 66
3 81 80 92
3 82 80 81
3 124 80 82
3 82 93 124
3 93 82 83
3 20 95 112
3 96 94 30
3 96 98 94
3 98 100 94
3 94 101 95
3 95 101 112
3 70 97 33
3 98 96 97
3 98 97 121
3 118 97 70
3 121 97 118
3 121 99 98
3 98 102 100
3 94 100 101
3 102 98 99
3 101 110 108
3 101 103 110
3 100 103 101
3 102 99 109
3 100 102 103
3 103 109 110
3 102 109 103
3 121 122 99
3 111 99 122
3 47 45 112
3 112 105 47
3 47 105 104
3 104 106 46
3 104 113 106
3 105 113 104
3 106 107 85
3 113 107 106
3 128 107 113
3 108 112 101
3 108 110 112
3 112 110 114
3 109 111 116
3 110 109 114
3 109 116 114
3 109 99 111
3 112 115 105
3 112 114 115
3 116 115 114
3 116 117 115
3 116 113 117
3 105 115 117
3 117 113 105
3 116 128 113
3 116 111 128
3 119 118 71
3 119 121 118
3 120 121 119
3 123 121 120
3 123 120 119
3 123 119 124
3 123 124 125
3 121 123 122
3 131 125 124
3 107 126 83
3 126 107 128
3 126 93 83
3 128 130 126
3 122 127 111
3 130 127 122
3 127 128 111
3 123 125 122
3 125 130 122
3 130 128 127
3 93 131 124
3 93 130 129
3 93 126 130
3 131 93 129
3 125 131 129
3 125 129 130
