ply
format ascii 1.0
comment generated by Broxy
element vertex 157
property float x
property float y
property float z
element face 310
property list uchar int vertex_indices
end_header
-0.13013 -0.617354 -0.365965
-0.134889 -0.457143 -0.393719
-0.439118 -0.772559 -0.161944
-0.326977 -0.773005 -0.170977
-0.43488 -0.585575 -0.156944
-0.438928 -0.413042 -0.146473
-0.439501 -0.772049 -0.300977
-0.368677 -0.69416 -0.144367
-0.233336 -0.662577 -0.177044
-0.354936 -0.662476 -0.330481
-0.112327 -0.437321 -0.152644
0.135851 -0.574826 -0.391366
0.0021104 -0.773733 -0.289832
-0.0870206 -0.772827 -0.170108
0.389756 -0.77204 -0.29095
0.201002 -0.771236 -0.176533
0.4352 -0.772361 -0.167703
0.435472 -0.772091 -0.274439
-0.17186 -0.775041 -0.299111
-0.0487629 -0.704424 -0.156078
0.0779571 -0.770032 -0.156206
0.0808172 -0.504297 -0.157384
0.345075 -0.770416 -0.168038
0.437018 -0.548371 -0.274611
0.310593 -0.502202 -0.136683
0.435653 -0.490894 -0.135268
-0.151653 -0.248815 -0.414154
-0.153643 -0.0906729 -0.415507
-0.248261 0.0945721 -0.360649
-0.128751 0.118343 -0.412115
-0.440422 -0.334163 -0.271122
-0.438624 -0.539414 -0.303908
-0.31353 -0.423381 -0.146214
-0.299015 -0.257575 -0.336204
-0.438559 -0.219365 -0.13655
-0.314156 -0.204836 -0.0981055
-0.456534 -0.0133852 -0.134482
-0.456359 -0.068029 -0.280292
-0.440926 0.110775 -0.286638
-0.318455 0.111755 0.0640093
0.237579 -0.362621 -0.375682
0.0917595 -0.142919 -0.422437
0.296751 -0.172526 -0.35558
-0.16557 -0.269041 -0.0832514
0.104746 -0.308349 0.119721
0.185853 -0.282954 -0.116593
0.434324 -0.182438 -0.115173
0.269173 -0.312832 -0.142582
0.437364 -0.305142 -0.291762
0.435255 -0.0655236 -0.276853
0.435294 -0.377153 -0.130102
0.280624 0.0775725 -0.342664
0.316615 0.32394 -0.350121
0.438242 0.103616 -0.274619
0.472112 0.229482 -0.138802
0.438228 0.00760857 -0.136245
0.330433 0.292101 -0.0931199
-0.268531 -0.645962 0.449093
-0.339478 -0.442957 0.500026
-0.273313 -0.540871 0.553338
-0.138677 -0.531845 0.531867
-0.272206 -0.471672 0.675902
-0.266496 -0.647294 0.380277
0.0456621 -0.575354 0.469069
0.265655 -0.64228 0.38383
0.117663 -0.431432 0.37825
0.102895 -0.429786 0.568026
-0.0156492 -0.402403 0.672621
0.203005 -0.538674 0.553075
0.269219 -0.671542 0.485436
0.327492 -0.471943 0.473131
0.320846 -0.355768 0.705606
-0.321628 -0.152166 0.0320007
-0.228153 -0.141967 0.139698
-0.247489 0.0974409 0.192228
-0.227177 -0.0825614 0.282603
-0.170005 0.192937 0.286769
-0.294104 -0.489251 0.380843
-0.182867 -0.34354 0.335073
-0.311374 -0.324319 0.404407
-0.265195 -0.190869 0.422315
-0.228414 -0.0509327 0.492383
-0.293283 -0.309866 0.675288
-0.229642 0.0610372 0.335901
0.130874 -0.157797 0.10217
0.246142 -0.10633 0.180141
-0.158746 -0.308837 0.208191
0.18937 -0.295395 0.293227
0.308262 -0.152939 0.0415207
0.307612 0.0831561 0.052257
0.232693 0.281948 0.203986
0.0303375 0.0485373 0.367122
-0.0796642 0.087778 0.363603
0.0279875 0.204951 0.369713
0.233908 0.092325 0.319012
0.261388 -0.196896 0.448451
0.212354 -0.469767 0.675049
-0.156407 -0.220474 0.674383
-0.0389177 -0.0716607 0.51985
0.136014 -0.201664 0.648785
0.299994 -0.401925 0.37903
0.306091 -0.320562 0.56122
0.286591 -0.516335 0.572646
0.235182 -0.0436012 0.487706
0.18071 0.261104 0.468401
0.180132 0.223673 0.333692
-0.277521 0.371265 -0.34939
-0.117539 0.341331 -0.415891
-0.272086 0.229543 -0.356612
-0.213737 0.586825 -0.36179
-0.439468 0.52291 -0.136805
-0.437885 0.366516 -0.302891
-0.437856 0.542685 -0.294905
-0.438573 0.148461 -0.132586
-0.326934 0.287002 -0.0565063
-0.439795 0.312359 -0.129933
-0.323214 0.424645 -0.0845356
-0.318436 0.666293 -0.0861647
-0.43863 0.782171 -0.268362
-0.438663 0.793715 -0.156593
-0.436473 0.785431 -0.28712
-0.313117 0.606514 0.0461022
0.0364928 0.231817 -0.421593
0.0465847 0.398883 -0.400466
0.0732881 0.0866828 -0.404819
-0.0423659 0.518181 -0.378451
0.152707 0.463515 -0.389731
0.185468 0.783845 -0.300224
0.435596 0.356227 -0.272911
0.332122 0.476408 -0.344693
0.341561 0.621665 -0.319238
0.4358 0.498748 -0.272227
0.127129 0.782363 -0.161378
0.00283958 0.784749 -0.274432
-0.066017 0.784607 -0.131924
0.140546 0.703863 0.0669362
0.436872 0.782145 -0.273698
0.435183 0.541352 -0.151291
0.435451 0.785239 -0.159459
0.330487 0.632515 -0.104169
-0.322177 0.430312 0.0537865
-0.236494 0.30997 0.206544
-0.238222 0.49365 0.200446
-0.17073 0.623472 0.332568
-0.234531 0.729637 0.0387685
-0.228304 0.662449 0.159884
-0.182811 0.272985 0.496062
-0.139985 0.623977 0.470535
0.230462 0.668917 0.152849
0.18546 0.614584 0.276328
0.233149 0.484191 0.2032
0.152626 0.624964 0.325685
0.307482 0.411982 0.0476705
0.308073 0.596312 0.0400091
0.0561346 0.665534 0.165133
0.00482905 0.444842 0.546452
0.137365 0.623321 0.473755
3 31 1 9
3 9 1 0
3 0 1 11
3 1 26 11
3 3 6 18
3 2 6 3
3 13 3 18
3 13 19 3
3 8 3 19
3 4 2 7
3 2 31 6
3 5 31 2
3 5 2 4
3 7 2 3
3 7 3 8
3 8 32 7
3 6 9 18
3 18 9 0
3 18 0 12
3 31 9 6
3 4 7 32
3 5 4 32
3 32 8 19
3 10 32 19
3 12 0 14
3 14 0 11
3 11 40 14
3 13 18 12
3 15 20 13
3 15 13 12
3 16 12 14
3 17 16 14
3 16 15 12
3 22 15 16
3 19 13 20
3 24 20 15
3 21 20 24
3 10 20 21
3 10 19 20
3 47 21 24
3 14 23 17
3 24 15 22
3 24 22 16
3 17 23 16
3 23 25 16
3 48 25 23
3 24 16 25
3 14 48 23
3 47 24 50
3 50 24 25
3 33 27 26
3 1 31 26
3 26 41 11
3 31 33 26
3 37 27 33
3 37 28 27
3 37 38 28
3 28 29 27
3 28 38 108
3 106 108 38
3 28 108 29
3 108 107 29
3 5 30 31
3 5 34 30
3 37 30 34
3 36 37 34
3 30 33 31
3 43 32 10
3 37 33 30
3 35 32 43
3 35 34 5
3 36 34 35
3 35 5 32
3 73 35 43
3 86 73 43
3 73 72 35
3 36 38 37
3 113 38 36
3 115 111 38
3 113 115 38
3 38 111 106
3 39 113 36
3 72 36 35
3 72 39 36
3 39 114 113
3 39 140 114
3 40 48 14
3 41 40 11
3 27 41 26
3 40 41 42
3 48 40 42
3 27 124 41
3 29 124 27
3 41 51 42
3 124 51 41
3 29 122 124
3 122 123 124
3 29 107 122
3 124 52 51
3 43 10 45
3 45 10 21
3 47 45 21
3 44 43 45
3 44 45 84
3 84 45 46
3 46 47 50
3 48 50 25
3 48 46 50
3 48 42 51
3 45 47 46
3 49 55 48
3 55 46 48
3 46 88 84
3 55 88 46
3 55 89 88
3 48 51 49
3 51 53 49
3 49 53 55
3 51 52 53
3 53 54 55
3 56 55 54
3 56 89 55
3 56 152 89
3 69 57 62
3 63 60 57
3 57 58 62
3 58 57 59
3 58 77 62
3 79 77 58
3 60 59 57
3 59 61 58
3 61 82 58
3 61 59 60
3 66 61 60
3 67 61 66
3 69 62 64
3 63 57 69
3 62 77 65
3 62 65 64
3 66 60 63
3 65 100 64
3 69 102 68
3 69 68 63
3 66 63 68
3 68 102 96
3 102 71 96
3 64 100 70
3 64 102 69
3 64 70 102
3 102 70 71
3 86 75 73
3 86 80 75
3 74 39 73
3 73 39 72
3 75 74 73
3 74 140 39
3 141 140 74
3 83 74 75
3 81 83 75
3 83 81 92
3 92 81 91
3 76 141 74
3 146 141 76
3 83 76 74
3 76 83 92
3 82 79 58
3 77 79 78
3 79 80 78
3 80 79 82
3 78 80 86
3 81 75 80
3 82 61 97
3 97 80 82
3 97 81 80
3 98 81 97
3 81 98 91
3 44 86 43
3 84 88 85
3 44 84 87
3 85 87 84
3 87 86 44
3 78 86 65
3 87 65 86
3 87 85 95
3 94 85 89
3 89 152 90
3 89 90 94
3 91 103 94
3 146 76 92
3 93 91 94
3 94 105 93
3 89 85 88
3 77 78 65
3 87 100 65
3 87 95 100
3 103 91 98
3 85 103 95
3 95 99 101
3 97 61 67
3 97 67 96
3 66 68 96
3 101 99 71
3 96 67 66
3 71 99 97
3 97 96 71
3 97 99 98
3 103 99 95
3 98 99 103
3 95 101 100
3 100 101 70
3 101 71 70
3 103 85 94
3 93 92 91
3 146 92 93
3 93 104 146
3 104 93 105
3 107 108 106
3 107 106 109
3 111 112 106
3 112 109 106
3 120 109 112
3 110 111 115
3 110 112 111
3 110 118 112
3 114 115 113
3 116 115 114
3 116 110 115
3 140 116 114
3 117 110 116
3 117 119 110
3 121 117 116
3 121 116 140
3 119 118 110
3 112 118 120
3 133 109 120
3 120 119 134
3 119 120 118
3 120 134 133
3 117 134 119
3 121 144 117
3 117 144 134
3 122 107 123
3 109 123 107
3 109 125 123
3 123 126 124
3 124 126 52
3 52 126 129
3 123 125 126
3 125 127 126
3 126 127 129
3 129 127 130
3 125 109 127
3 53 52 128
3 53 128 54
3 131 54 128
3 129 128 52
3 131 128 129
3 129 130 131
3 131 137 54
3 137 139 56
3 139 152 56
3 137 56 54
3 139 153 152
3 133 127 109
3 127 136 130
3 133 134 127
3 127 134 132
3 132 138 127
3 154 135 134
3 134 135 132
3 132 135 139
3 135 148 139
3 130 136 131
3 138 132 139
3 138 139 137
3 136 137 131
3 136 138 137
3 127 138 136
3 139 148 153
3 121 140 142
3 142 140 141
3 142 141 143
3 146 143 141
3 145 142 143
3 145 121 142
3 145 144 121
3 144 145 154
3 145 143 154
3 147 143 146
3 152 150 90
3 152 148 150
3 152 153 148
3 90 105 94
3 149 105 90
3 150 149 90
3 150 148 149
3 151 104 149
3 149 104 105
3 144 154 134
3 154 148 135
3 149 154 151
3 143 151 154
3 154 149 148
3 155 146 104
3 146 155 147
3 147 155 156
3 156 104 151
3 156 155 104
3 143 147 151
3 147 156 151
